<svg xmlns="http://www.w3.org/2000/svg" width="2048" height="2048" viewBox="0 0 800 800">
  <!-- Left Curly Bracket -->
  <g fill="#1aede6">
    <path d="M 50 150 C 30 140 20 130 20 110 C 20 100 30 90 50 80 C 70 70 90 70 100 80 C 110 90 120 100 120 110 C 120 130 110 140 100 150 C 90 160 70 160 50 150 Z" transform="scale(3, 7) translate(5, -5)" />
  </g>
  
  <!-- Text Elements for Subham and Gupta, centered between the brackets -->
  <g fill="#ffffff">
    <text x="350" y="300" font-size="80" font-family="Arial" fill="#ffffff" text-anchor="middle">Subham</text>
    <text x="350" y="400" font-size="80" font-family="Arial" fill="#ffffff" text-anchor="middle">Gupta</text>
  </g>

  <!-- Right Curly Bracket -->
  <g fill="#1aede6">
    <path d="M 50 150 C 70 140 80 130 80 110 C 80 100 70 90 50 80 C 30 70 10 70 0 80 C -10 90 -20 100 -20 110 C -20 130 -10 140 0 150 C 10 160 30 160 50 150 Z" transform="scale(3, 7) translate(190, -5)" />
  </g>
</svg>
